<?xml version="1.0" encoding="UTF-8" standalone="no"?>
<!DOCTYPE svg PUBLIC "-//W3C//DTD SVG 1.1//EN"
"http://www.w3.org/Graphics/SVG/1.1/DTD/svg11.dtd">
<svg version="1.1" xmlns="http://www.w3.org/2000/svg"
xmlns:xlink="http://www.w3.org/1999/xlink" xml:space="preserve"
 width="1121" height="1181" viewBox="0 0 1121 1181">
 onmousemove="movetip(evt)" onmouseup="endmove()">
<rect x="0" y="0" width="100%" height="100%" style="fill:#F0F8FF;"/>
<script type="application/ecmascript"> <![CDATA[
var dragtipid = null; var dragcase = false; function init(evt){
if (window.svgDocument==null) svgDocument = evt.target.ownerDocument;
}
function movetip(evt){if (dragtipid!=null){ dragcase = true;
var tip=svgDocument.getElementById(dragtipid);
tip.setAttributeNS(null,"x",evt.clientX-2);
tip.setAttributeNS(null,"y",evt.clientY-2);
}}
function endmove(){dragtipid = null;}
function startmove(evt,id){dragtipid = id; dragcase = false;
var tip=svgDocument.getElementById(dragtipid);
tip.setAttributeNS(null,"x",evt.clientX-2);
tip.setAttributeNS(null,"y",evt.clientY-2);
}
function Showtip(evt,id){ dragtipid = null;
var tip=svgDocument.getElementById(id);
var vis=tip.getAttributeNS(null,"visibility");
if (vis=="hidden"){
tip.setAttributeNS(null,"x",evt.clientX-2);
tip.setAttributeNS(null,"y",evt.clientY-2);
tip.setAttributeNS(null,"visibility","visible");
}}
function Hidetip(id){ dragtipid = null; if (dragcase==false){
var tip=svgDocument.getElementById(id);
tip.setAttributeNS(null,"visibility","hidden");
}}
]]></script>
<defs><linearGradient id="activ1" x1="0%" y1="0%" x2="100%" y2="0%">
<stop offset="0%" style="stop-color:#FFFF00;stop-opacity:1"/>
<stop offset="100%" style="stop-color:#FFFFF0;stop-opacity:1"/>
</linearGradient></defs>
<g id="2000988623"><polygon points="627,1033 657,1033 657,1037 627,1037 "
style="fill:#8000FF; stroke-width:1;stroke:Black;"/>
</g>
<g id="2000988627"><polygon points="895,369 928,369 928,373 895,373 "
style="fill:#8000FF; stroke-width:1;stroke:Black;"/>
</g>
<g id="2000988631"><polygon points="299,615 335,615 335,619 299,619 "
style="fill:#8000FF; stroke-width:1;stroke:Black;"/>
</g>
<g id="2000988635"><polygon points="775,912 805,912 805,916 775,916 "
style="fill:#8000FF; stroke-width:1;stroke:Black;"/>
</g>
<g id="2000988639"><polygon points="890,676 940,676 940,680 890,680 "
style="fill:#8000FF; stroke-width:1;stroke:Black;"/>
</g>
<g id="2000988643"><polygon points="458,146 499,146 499,150 458,150 "
style="fill:#8000FF; stroke-width:1;stroke:Black;"/>
<text style="font-family:Arial;font-size:12px;kerning:0;word-spacing:-1px;fill:Black;">
<tspan x="411" y="147">{disjoint}</tspan>
</text>
</g>
<g id="2000988658"><polygon points="601,752 793,752 793,807 601,807 "
style="fill:url(#activ1); stroke-width:1;stroke:Black;"/>
<line x1="605" y1="805" x2="791" y2="805"
 style="stroke-width:1;stroke:Black;"/>
<text style="font-family:Arial;font-size:14px;kerning:0;word-spacing:-1px;fill:Black;font-weight:bold;">
<tspan x="615" y="768">WeatherConditions{http://</tspan>
<tspan x="607" y="785">www.co-ode.org/ontologies/</tspan>
<tspan x="672" y="802">ont.owl}</tspan>
</text>
</g>
<g id="2000988669"><polygon points="916,523 1081,523 1081,578 916,578 "
style="fill:url(#activ1); stroke-width:1;stroke:Black;"/>
<line x1="920" y1="576" x2="1079" y2="576"
 style="stroke-width:1;stroke:Black;"/>
<text style="font-family:Arial;font-size:14px;kerning:0;word-spacing:-1px;fill:Black;font-weight:bold;">
<tspan x="923" y="539">SouthAmericanCountry</tspan>
<tspan x="923" y="556">{http://www.co-ode.org/</tspan>
<tspan x="938" y="573">ontologies/ont.owl}</tspan>
</text>
</g>
<g id="2000988680"><polygon points="586,506 751,506 751,555 586,555 "
style="fill:url(#activ1); stroke-width:1;stroke:Black;"/>
<line x1="590" y1="525" x2="749" y2="525"
 style="stroke-width:1;stroke:Black;"/>
<text style="font-family:Arial;font-size:14px;kerning:0;word-spacing:-1px;fill:Black;font-weight:bold;">
<tspan x="645" y="522">Gender</tspan>
</text>
</g>
<g id="2000988691"><polygon points="788,230 953,230 953,279 788,279 "
style="fill:url(#activ1); stroke-width:1;stroke:Black;"/>
<line x1="792" y1="266" x2="951" y2="266"
 style="stroke-width:1;stroke:Black;"/>
<text style="font-family:Arial;font-size:14px;kerning:0;word-spacing:-1px;fill:Black;font-weight:bold;">
<tspan x="798" y="246">Art{http://www.co-ode.</tspan>
<tspan x="798" y="263">org/ontologies/ont.owl}</tspan>
</text>
</g>
<g id="2000988702"><polygon points="455,10 620,10 620,59 455,59 "
style="fill:url(#activ1); stroke-width:1;stroke:Black;"/>
<line x1="459" y1="29" x2="618" y2="29"
 style="stroke-width:1;stroke:Black;"/>
<text style="font-family:Arial;font-size:14px;kerning:0;word-spacing:-1px;fill:Black;font-weight:bold;">
<tspan x="521" y="26">Book</tspan>
</text>
</g>
<g id="2000988713"><polygon points="928,584 1093,584 1093,639 928,639 "
style="fill:url(#activ1); stroke-width:1;stroke:Black;"/>
<line x1="932" y1="637" x2="1091" y2="637"
 style="stroke-width:1;stroke:Black;"/>
<text style="font-family:Arial;font-size:14px;kerning:0;word-spacing:-1px;fill:Black;font-weight:bold;">
<tspan x="947" y="600">AsianCountry{http://</tspan>
<tspan x="955" y="617">www.co-ode.org/</tspan>
<tspan x="950" y="634">ontologies/ont.owl}</tspan>
</text>
</g>
<g id="2000988724"><polygon points="739,435 904,435 904,500 739,500 "
style="fill:url(#activ1); stroke-width:1;stroke:Black;"/>
<line x1="743" y1="488" x2="902" y2="488"
 style="stroke-width:1;stroke:Black;"/>
<text style="font-family:Arial;font-size:14px;kerning:0;word-spacing:-1px;fill:Black;font-weight:bold;">
<tspan x="748" y="451">Interest{http://www.co-</tspan>
<tspan x="748" y="468">ode.org/ontologies/ont.</tspan>
<tspan x="808" y="485">owl}</tspan>
</text>
</g>
<g id="2000988735"><polygon points="907,285 1072,285 1072,340 907,340 "
style="fill:url(#activ1); stroke-width:1;stroke:Black;"/>
<line x1="911" y1="338" x2="1070" y2="338"
 style="stroke-width:1;stroke:Black;"/>
<text style="font-family:Arial;font-size:14px;kerning:0;word-spacing:-1px;fill:Black;font-weight:bold;">
<tspan x="914" y="301">Science{http://www.co-</tspan>
<tspan x="916" y="318">ode.org/ontologies/ont.</tspan>
<tspan x="976" y="335">owl}</tspan>
</text>
</g>
<g id="2000988746"><polygon points="10,573 175,573 175,623 10,623 "
style="fill:url(#activ1); stroke-width:1;stroke:Black;"/>
<line x1="14" y1="592" x2="173" y2="592"
 style="stroke-width:1;stroke:Black;"/>
<text style="font-family:Arial;font-size:14px;kerning:0;word-spacing:-1px;fill:Black;font-weight:bold;">
<tspan x="59" y="589">Thing{owl}</tspan>
</text>
<line x1="14" y1="592" x2="173" y2="592"
 style="stroke-width:1;stroke:Black;"/>
<text style="font-family:Arial;font-size:12px;kerning:0;word-spacing:-1px;fill:Black;">
<tspan x="14" y="604">topDataProperty{owl}</tspan>
</text>
</g>
<g id="2000988774"><polygon points="482,177 647,177 647,226 482,226 "
style="fill:url(#activ1); stroke-width:1;stroke:Black;"/>
<line x1="486" y1="196" x2="645" y2="196"
 style="stroke-width:1;stroke:Black;"/>
<text style="font-family:Arial;font-size:14px;kerning:0;word-spacing:-1px;fill:Black;font-weight:bold;">
<tspan x="537" y="193">Weapon</tspan>
</text>
</g>
<g id="2000988785"><polygon points="649,122 814,122 814,171 649,171 "
style="fill:url(#activ1); stroke-width:1;stroke:Black;"/>
<line x1="653" y1="141" x2="812" y2="141"
 style="stroke-width:1;stroke:Black;"/>
<text style="font-family:Arial;font-size:14px;kerning:0;word-spacing:-1px;fill:Black;font-weight:bold;">
<tspan x="720" y="138">Toy</tspan>
</text>
</g>
<g id="2000988796"><polygon points="639,1067 804,1067 804,1116 639,1116 "
style="fill:url(#activ1); stroke-width:1;stroke:Black;"/>
<line x1="643" y1="1086" x2="802" y2="1086"
 style="stroke-width:1;stroke:Black;"/>
<text style="font-family:Arial;font-size:14px;kerning:0;word-spacing:-1px;fill:Black;font-weight:bold;">
<tspan x="697" y="1083">Magical</tspan>
</text>
</g>
<g id="2000988807"><polygon points="429,843 793,843 793,892 429,892 "
style="fill:url(#activ1); stroke-width:1;stroke:Black;"/>
<line x1="433" y1="862" x2="791" y2="862"
 style="stroke-width:1;stroke:Black;"/>
<text style="font-family:Arial;font-size:14px;kerning:0;word-spacing:-1px;fill:Black;font-weight:bold;">
<tspan x="540" y="859">TranspotationMethods</tspan>
</text>
</g>
<g id="2000988818"><polygon points="562,1122 727,1122 727,1171 562,1171 "
style="fill:url(#activ1); stroke-width:1;stroke:Black;"/>
<line x1="566" y1="1141" x2="725" y2="1141"
 style="stroke-width:1;stroke:Black;"/>
<text style="font-family:Arial;font-size:14px;kerning:0;word-spacing:-1px;fill:Black;font-weight:bold;">
<tspan x="620" y="1138">Classic</tspan>
</text>
</g>
<g id="2000988829"><polygon points="934,346 1099,346 1099,395 934,395 "
style="fill:url(#activ1); stroke-width:1;stroke:Black;"/>
<line x1="938" y1="365" x2="1097" y2="365"
 style="stroke-width:1;stroke:Black;"/>
<text style="font-family:Arial;font-size:14px;kerning:0;word-spacing:-1px;fill:Black;font-weight:bold;">
<tspan x="995" y="362">Military</tspan>
</text>
</g>
<g id="2000988840"><polygon points="902,767 1067,767 1067,822 902,822 "
style="fill:url(#activ1); stroke-width:1;stroke:Black;"/>
<line x1="906" y1="820" x2="1065" y2="820"
 style="stroke-width:1;stroke:Black;"/>
<text style="font-family:Arial;font-size:14px;kerning:0;word-spacing:-1px;fill:Black;font-weight:bold;">
<tspan x="911" y="783">OceaniaCountry{http://</tspan>
<tspan x="929" y="800">www.co-ode.org/</tspan>
<tspan x="924" y="817">ontologies/ont.owl}</tspan>
</text>
</g>
<g id="2000988851"><polygon points="902,828 1067,828 1067,883 902,883 "
style="fill:url(#activ1); stroke-width:1;stroke:Black;"/>
<line x1="906" y1="881" x2="1065" y2="881"
 style="stroke-width:1;stroke:Black;"/>
<text style="font-family:Arial;font-size:14px;kerning:0;word-spacing:-1px;fill:Black;font-weight:bold;">
<tspan x="911" y="844">NorthAmericanCountry</tspan>
<tspan x="909" y="861">{http://www.co-ode.org/</tspan>
<tspan x="924" y="878">ontologies/ont.owl}</tspan>
</text>
</g>
<g id="2000988862"><polygon points="305,308 470,308 470,374 305,374 "
style="fill:url(#activ1); stroke-width:1;stroke:Black;"/>
<line x1="309" y1="327" x2="468" y2="327"
 style="stroke-width:1;stroke:Black;"/>
<text style="font-family:Arial;font-size:14px;kerning:0;word-spacing:-1px;fill:Black;font-weight:bold;">
<tspan x="377" y="324">Gift</tspan>
</text>
<line x1="309" y1="327" x2="468" y2="327"
 style="stroke-width:1;stroke:Black;"/>
<text style="font-family:Arial;font-size:12px;kerning:0;word-spacing:-1px;fill:Black;">
<tspan x="309" y="339">apropriateForAgesAndUp:</tspan>
<tspan x="309" y="354">positiveInteger{</tspan>
<tspan x="309" y="369">&lt;topDataProperty{owl}}</tspan>
</text>
</g>
<g id="2000988892"><polygon points="474,380 639,380 639,429 474,429 "
style="fill:url(#activ1); stroke-width:1;stroke:Black;"/>
<line x1="478" y1="399" x2="637" y2="399"
 style="stroke-width:1;stroke:Black;"/>
<text style="font-family:Arial;font-size:14px;kerning:0;word-spacing:-1px;fill:Black;font-weight:bold;">
<tspan x="522" y="396">RoadState</tspan>
</text>
</g>
<g id="2000988903"><polygon points="567,574 732,574 732,625 567,625 "
style="fill:url(#activ1); stroke-width:1;stroke:Black;"/>
<line x1="571" y1="593" x2="730" y2="593"
 style="stroke-width:1;stroke:Black;"/>
<text style="font-family:Arial;font-size:14px;kerning:0;word-spacing:-1px;fill:Black;font-weight:bold;">
<tspan x="633" y="590">Child</tspan>
</text>
<line x1="571" y1="593" x2="730" y2="593"
 style="stroke-width:1;stroke:Black;"/>
<text style="font-family:Arial;font-size:12px;kerning:0;word-spacing:-1px;fill:Black;">
<tspan x="571" y="605">hasAge:positiveInteger{</tspan>
<tspan x="571" y="620">&lt;topDataProperty{owl}}</tspan>
</text>
</g>
<g id="2000988933"><polygon points="487,65 652,65 652,114 487,114 "
style="fill:url(#activ1); stroke-width:1;stroke:Black;"/>
<line x1="491" y1="84" x2="650" y2="84"
 style="stroke-width:1;stroke:Black;"/>
<text style="font-family:Arial;font-size:14px;kerning:0;word-spacing:-1px;fill:Black;font-weight:bold;">
<tspan x="556" y="81">Tool</tspan>
</text>
</g>
<g id="2000988944"><polygon points="317,711 482,711 482,760 317,760 "
style="fill:url(#activ1); stroke-width:1;stroke:Black;"/>
<line x1="321" y1="730" x2="480" y2="730"
 style="stroke-width:1;stroke:Black;"/>
<text style="font-family:Arial;font-size:14px;kerning:0;word-spacing:-1px;fill:Black;font-weight:bold;">
<tspan x="327" y="727">TransportationMedium</tspan>
</text>
</g>
<g id="2000988955"><polygon points="946,645 1111,645 1111,700 946,700 "
style="fill:url(#activ1); stroke-width:1;stroke:Black;"/>
<line x1="950" y1="698" x2="1109" y2="698"
 style="stroke-width:1;stroke:Black;"/>
<text style="font-family:Arial;font-size:14px;kerning:0;word-spacing:-1px;fill:Black;font-weight:bold;">
<tspan x="950" y="661">AntarcticaCountry{http://</tspan>
<tspan x="973" y="678">www.co-ode.org/</tspan>
<tspan x="968" y="695">ontologies/ont.owl}</tspan>
</text>
</g>
<g id="2000988966"><polygon points="811,889 976,889 976,944 811,944 "
style="fill:url(#activ1); stroke-width:1;stroke:Black;"/>
<line x1="815" y1="942" x2="974" y2="942"
 style="stroke-width:1;stroke:Black;"/>
<text style="font-family:Arial;font-size:14px;kerning:0;word-spacing:-1px;fill:Black;font-weight:bold;">
<tspan x="818" y="905">BadWeatherConditions</tspan>
<tspan x="818" y="922">{http://www.co-ode.org/</tspan>
<tspan x="833" y="939">ontologies/ont.owl}</tspan>
</text>
</g>
<g id="2000988977"><polygon points="673,1011 838,1011 838,1060 673,1060 "
style="fill:url(#activ1); stroke-width:1;stroke:Black;"/>
<line x1="677" y1="1030" x2="836" y2="1030"
 style="stroke-width:1;stroke:Black;"/>
<text style="font-family:Arial;font-size:14px;kerning:0;word-spacing:-1px;fill:Black;font-weight:bold;">
<tspan x="732" y="1027">Modern</tspan>
</text>
</g>
<g id="2000988988"><polygon points="505,661 670,661 670,716 505,716 "
style="fill:url(#activ1); stroke-width:1;stroke:Black;"/>
<line x1="509" y1="714" x2="668" y2="714"
 style="stroke-width:1;stroke:Black;"/>
<text style="font-family:Arial;font-size:14px;kerning:0;word-spacing:-1px;fill:Black;font-weight:bold;">
<tspan x="513" y="677">Country{http://www.co-</tspan>
<tspan x="514" y="694">ode.org/ontologies/ont.</tspan>
<tspan x="574" y="711">owl}</tspan>
</text>
</g>
<g id="2000988999"><polygon points="916,462 1081,462 1081,517 916,517 "
style="fill:url(#activ1); stroke-width:1;stroke:Black;"/>
<line x1="920" y1="515" x2="1079" y2="515"
 style="stroke-width:1;stroke:Black;"/>
<text style="font-family:Arial;font-size:14px;kerning:0;word-spacing:-1px;fill:Black;font-weight:bold;">
<tspan x="930" y="478">AfricanCountry{http://</tspan>
<tspan x="943" y="495">www.co-ode.org/</tspan>
<tspan x="938" y="512">ontologies/ont.owl}</tspan>
</text>
</g>
<g id="2000989010"><polygon points="914,706 1079,706 1079,761 914,761 "
style="fill:url(#activ1); stroke-width:1;stroke:Black;"/>
<line x1="918" y1="759" x2="1077" y2="759"
 style="stroke-width:1;stroke:Black;"/>
<text style="font-family:Arial;font-size:14px;kerning:0;word-spacing:-1px;fill:Black;font-weight:bold;">
<tspan x="919" y="722">EuropeanCountry{http://</tspan>
<tspan x="941" y="739">www.co-ode.org/</tspan>
<tspan x="936" y="756">ontologies/ont.owl}</tspan>
</text>
</g>
<g id="2000989021"><polygon points="916,401 1081,401 1081,456 916,456 "
style="fill:url(#activ1); stroke-width:1;stroke:Black;"/>
<line x1="920" y1="454" x2="1079" y2="454"
 style="stroke-width:1;stroke:Black;"/>
<text style="font-family:Arial;font-size:14px;kerning:0;word-spacing:-1px;fill:Black;font-weight:bold;">
<tspan x="921" y="417">Engineering{http://www.</tspan>
<tspan x="927" y="434">co-ode.org/ontologies/</tspan>
<tspan x="973" y="451">ont.owl}</tspan>
</text>
</g>
<g id="2000988647"><polygon points="694,950 860,950 860,1005 694,1005 "
style="fill:url(#activ1); stroke-width:1;stroke:Black;"/>
<line x1="698" y1="1003" x2="858" y2="1003"
 style="stroke-width:1;stroke:Black;"/>
<text style="font-family:Arial;font-size:14px;kerning:0;word-spacing:-1px;fill:Black;font-weight:bold;">
<tspan x="698" y="966">GoodWeatherConditions</tspan>
<tspan x="702" y="983">{http://www.co-ode.org/</tspan>
<tspan x="717" y="1000">ontologies/ont.owl}</tspan>
</text>
</g>
<g id="2000989032"><path d="M607,843 L607,807 "
style="fill:none;stroke-width:1;stroke:Black;"/>
<line x1="604" y1="813" x2="607" y2="807"
 style="stroke-width:1;stroke:Black;"/>
<line x1="610" y1="813" x2="607" y2="807"
 style="stroke-width:1;stroke:Black;"/>
<text style="font-family:Arial;font-size:12px;kerning:0;word-spacing:-1px;fill:Black;">
<tspan x="443" y="822">apropriateWeatherConditions</tspan>
</text>
<text style="font-family:Arial;font-size:12px;kerning:0;word-spacing:-1px;fill:Black;">
<tspan x="466" y="839">{&lt;topObjectProperty{owl}}</tspan>
</text>
</g>
<g id="2000989079"><path d="M347,374 L347,672 349,676 353,678 505,678 "
style="fill:none;stroke-width:1;stroke:Black;"/>
<line x1="499" y1="675" x2="505" y2="678"
 style="stroke-width:1;stroke:Black;"/>
<line x1="499" y1="681" x2="505" y2="678"
 style="stroke-width:1;stroke:Black;"/>
<text style="font-family:Arial;font-size:12px;kerning:0;word-spacing:-1px;fill:Black;">
<tspan x="355" y="676">popularIn</tspan>
</text>
<text style="font-family:Arial;font-size:12px;kerning:0;word-spacing:-1px;fill:Black;">
<tspan x="413" y="676">{&lt;&gt;unpopularIn}</tspan>
</text>
</g>
<g id="2000989128"><path d="M620,625 L620,661 "
style="fill:none;stroke-width:1;stroke:Black;"/>
<line x1="617" y1="655" x2="620" y2="661"
 style="stroke-width:1;stroke:Black;"/>
<line x1="623" y1="655" x2="620" y2="661"
 style="stroke-width:1;stroke:Black;"/>
<text style="font-family:Arial;font-size:12px;kerning:0;word-spacing:-1px;fill:Black;">
<tspan x="622" y="640">livesIn</tspan>
</text>
<text style="font-family:Arial;font-size:12px;kerning:0;word-spacing:-1px;fill:Black;">
<tspan x="622" y="657">{&lt;topObjectProperty{owl}}</tspan>
</text>
</g>
<g id="2000989175"><path d="M659,574 L659,555 "
style="fill:none;stroke-width:1;stroke:Black;"/>
<line x1="656" y1="561" x2="659" y2="555"
 style="stroke-width:1;stroke:Black;"/>
<line x1="662" y1="561" x2="659" y2="555"
 style="stroke-width:1;stroke:Black;"/>
<text style="font-family:Arial;font-size:12px;kerning:0;word-spacing:-1px;fill:Black;">
<tspan x="595" y="570">hasGender</tspan>
</text>
<text style="font-family:Arial;font-size:12px;kerning:0;word-spacing:-1px;fill:Black;">
<tspan x="661" y="570">{func}</tspan>
</text>
</g>
<g id="2000989220"><path d="M435,843 L435,760 "
style="fill:none;stroke-width:1;stroke:Black;"/>
<line x1="432" y1="766" x2="435" y2="760"
 style="stroke-width:1;stroke:Black;"/>
<line x1="438" y1="766" x2="435" y2="760"
 style="stroke-width:1;stroke:Black;"/>
<text style="font-family:Arial;font-size:12px;kerning:0;word-spacing:-1px;fill:Black;">
<tspan x="319" y="775">On{movesThrough2}</tspan>
</text>
</g>
<g id="2000989265"><path d="M341,374 L341,693 343,697 347,699 505,699 "
style="fill:none;stroke-width:1;stroke:Black;"/>
<line x1="499" y1="696" x2="505" y2="699"
 style="stroke-width:1;stroke:Black;"/>
<line x1="499" y1="702" x2="505" y2="699"
 style="stroke-width:1;stroke:Black;"/>
<text style="font-family:Arial;font-size:12px;kerning:0;word-spacing:-1px;fill:Black;">
<tspan x="355" y="697">unpopularIn</tspan>
</text>
<text style="font-family:Arial;font-size:12px;kerning:0;word-spacing:-1px;fill:Black;">
<tspan x="427" y="697">{&lt;&gt;popularIn}</tspan>
</text>
</g>
<g id="2000989314"><path d="M642,716 L642,752 "
style="fill:none;stroke-width:1;stroke:Black;"/>
<line x1="639" y1="746" x2="642" y2="752"
 style="stroke-width:1;stroke:Black;"/>
<line x1="645" y1="746" x2="642" y2="752"
 style="stroke-width:1;stroke:Black;"/>
<text style="font-family:Arial;font-size:12px;kerning:0;word-spacing:-1px;fill:Black;">
<tspan x="644" y="731">averageWeatherConditions</tspan>
</text>
<text style="font-family:Arial;font-size:12px;kerning:0;word-spacing:-1px;fill:Black;">
<tspan x="644" y="748">{&lt;topObjectProperty{owl}}</tspan>
</text>
<text style="font-family:Arial;font-size:12px;kerning:0;word-spacing:-1px;fill:Black;">
<tspan x="602" y="748">{asym}</tspan>
</text>
</g>
<g id="2000989361"><path d="M567,582 L523,582 519,580 517,576 517,500 519,496 523,494 739,494 "
style="fill:none;stroke-width:1;stroke:Black;"/>
<line x1="733" y1="491" x2="739" y2="494"
 style="stroke-width:1;stroke:Black;"/>
<line x1="733" y1="497" x2="739" y2="494"
 style="stroke-width:1;stroke:Black;"/>
<text style="font-family:Arial;font-size:12px;kerning:0;word-spacing:-1px;fill:Black;">
<tspan x="525" y="492">interestedIn</tspan>
</text>
<text style="font-family:Arial;font-size:12px;kerning:0;word-spacing:-1px;fill:Black;">
<tspan x="596" y="492">{&lt;topObjectProperty{owl}}</tspan>
</text>
</g>
<g id="2000989408"><path d="M511,661 L511,429 "
style="fill:none;stroke-width:1;stroke:Black;"/>
<line x1="508" y1="435" x2="511" y2="429"
 style="stroke-width:1;stroke:Black;"/>
<line x1="514" y1="435" x2="511" y2="429"
 style="stroke-width:1;stroke:Black;"/>
<text style="font-family:Arial;font-size:12px;kerning:0;word-spacing:-1px;fill:Black;">
<tspan x="424" y="444">roadConditions</tspan>
</text>
</g>
<g id="2000989453"><path d="M567,590 L175,590 "
style="fill:none;stroke-width:1;stroke:Black;"/>
<line x1="181" y1="587" x2="175" y2="590"
 style="stroke-width:1;stroke:Black;"/>
<line x1="181" y1="593" x2="175" y2="590"
 style="stroke-width:1;stroke:Black;"/>
<text style="font-family:Arial;font-size:12px;kerning:0;word-spacing:-1px;fill:Black;">
<tspan x="179" y="603">topObjectProperty{owl}</tspan>
</text>
<text style="font-family:Arial;font-size:12px;kerning:0;word-spacing:-1px;fill:Black;">
<tspan x="179" y="588">{asym}</tspan>
</text>
<text style="font-family:Arial;font-size:12px;kerning:0;word-spacing:-1px;fill:Black;">
<tspan x="223" y="588">{tran}</tspan>
</text>
</g>
<g id="2000989498"><path d="M787,843 L787,807 "
style="fill:none;stroke-width:1;stroke:Black;"/>
<line x1="784" y1="813" x2="787" y2="807"
 style="stroke-width:1;stroke:Black;"/>
<line x1="790" y1="813" x2="787" y2="807"
 style="stroke-width:1;stroke:Black;"/>
<text style="font-family:Arial;font-size:12px;kerning:0;word-spacing:-1px;fill:Black;">
<tspan x="615" y="822">unfavorableWeatherConditions</tspan>
</text>
</g>
<g id="2000989543"><path d="M408,374 L408,446 410,450 414,452 739,452 "
style="fill:none;stroke-width:1;stroke:Black;"/>
<line x1="733" y1="449" x2="739" y2="452"
 style="stroke-width:1;stroke:Black;"/>
<line x1="733" y1="455" x2="739" y2="452"
 style="stroke-width:1;stroke:Black;"/>
<text style="font-family:Arial;font-size:12px;kerning:0;word-spacing:-1px;fill:Black;">
<tspan x="664" y="450">connectedTo</tspan>
</text>
<text style="font-family:Arial;font-size:12px;kerning:0;word-spacing:-1px;fill:Black;">
<tspan x="673" y="465">{sym}</tspan>
</text>
<text style="font-family:Arial;font-size:12px;kerning:0;word-spacing:-1px;fill:Black;">
<tspan x="710" y="465">{refl}</tspan>
</text>
</g>
<g id="2000989588"><path d="M299,617 L175,617 "
style="fill:none;stroke-width:3;stroke:Purple;"/>
<polygon points="181,620 175,617 181,614 "
style="fill:#F0F0F0;stroke-width:1;stroke:Black;"/>
</g>
<g id="2000989589"><path d="M464,150 L464,308 "
style="fill:none;stroke-width:3;stroke:Purple;"/>
<polygon points="467,302 464,308 461,302 "
style="fill:#F0F0F0;stroke-width:1;stroke:Black;"/>
</g>
<g id="2000989590"><path d="M799,912 L799,780 793,780 "
style="fill:none;stroke-width:3;stroke:Purple;"/>
<polygon points="799,783 793,780 799,777 "
style="fill:#F0F0F0;stroke-width:1;stroke:Black;"/>
</g>
<g id="2000989591"><path d="M890,678 L670,678 "
style="fill:none;stroke-width:3;stroke:Purple;"/>
<polygon points="676,681 670,678 676,675 "
style="fill:#F0F0F0;stroke-width:1;stroke:Black;"/>
</g>
<g id="2000989592"><path d="M910,373 L910,468 904,468 "
style="fill:none;stroke-width:3;stroke:Purple;"/>
<polygon points="910,471 904,468 910,465 "
style="fill:#F0F0F0;stroke-width:1;stroke:Black;"/>
</g>
<g id="2000989593"><path d="M633,1033 L633,892 "
style="fill:none;stroke-width:3;stroke:Purple;"/>
<polygon points="636,898 633,892 630,898 "
style="fill:#F0F0F0;stroke-width:1;stroke:Black;"/>
</g>
<g id="2000989594"><path d="M493,177 L493,150 "
style="fill:none;stroke-width:3;stroke:#8000FF;"/>
</g>
<g id="2000989595"><path d="M649,148 L499,148 "
style="fill:none;stroke-width:3;stroke:#8000FF;"/>
</g>
<g id="2000989596"><path d="M493,114 L493,146 "
style="fill:none;stroke-width:3;stroke:#8000FF;"/>
</g>
<g id="2000989597"><path d="M567,617 L335,617 "
style="fill:none;stroke-width:3;stroke:#8000FF;"/>
</g>
<g id="2000989598"><path d="M481,59 L481,146 "
style="fill:none;stroke-width:3;stroke:#8000FF;"/>
</g>
<g id="2000989599"><path d="M633,1122 L633,1037 "
style="fill:none;stroke-width:3;stroke:#8000FF;"/>
</g>
<g id="2000989600"><path d="M902,856 L902,856 898,854 896,850 896,680 "
style="fill:none;stroke-width:3;stroke:#8000FF;"/>
</g>
<g id="2000989601"><path d="M908,767 L908,680 "
style="fill:none;stroke-width:3;stroke:#8000FF;"/>
</g>
<g id="2000989602"><path d="M934,706 L934,680 "
style="fill:none;stroke-width:3;stroke:#8000FF;"/>
</g>
<g id="2000989603"><path d="M946,678 L940,678 "
style="fill:none;stroke-width:3;stroke:#8000FF;"/>
</g>
<g id="2000989604"><path d="M783,950 L783,916 "
style="fill:none;stroke-width:3;stroke:#8000FF;"/>
</g>
<g id="2000989605"><path d="M922,401 L922,373 "
style="fill:none;stroke-width:3;stroke:#8000FF;"/>
</g>
<g id="2000989606"><path d="M934,371 L928,371 "
style="fill:none;stroke-width:3;stroke:#8000FF;"/>
</g>
<g id="2000989607"><path d="M811,914 L805,914 "
style="fill:none;stroke-width:3;stroke:#8000FF;"/>
</g>
<g id="2000989608"><path d="M601,783 L317,783 313,781 311,777 311,619 "
style="fill:none;stroke-width:3;stroke:#8000FF;"/>
</g>
<g id="2000989609"><path d="M739,473 L329,473 325,475 323,479 323,615 "
style="fill:none;stroke-width:3;stroke:#8000FF;"/>
</g>
<g id="2000989610"><path d="M586,531 L335,531 331,533 329,537 329,615 "
style="fill:none;stroke-width:3;stroke:#8000FF;"/>
</g>
<g id="2000989611"><path d="M429,868 L311,868 307,866 305,862 305,619 "
style="fill:none;stroke-width:3;stroke:#8000FF;"/>
</g>
<g id="2000989612"><path d="M505,705 L335,705 331,703 329,699 329,619 "
style="fill:none;stroke-width:3;stroke:#8000FF;"/>
</g>
<g id="2000989613"><path d="M323,711 L323,619 "
style="fill:none;stroke-width:3;stroke:#8000FF;"/>
</g>
<g id="2000989614"><path d="M311,374 L311,615 "
style="fill:none;stroke-width:3;stroke:#8000FF;"/>
</g>
<g id="2000989615"><path d="M474,405 L323,405 319,407 317,411 317,615 "
style="fill:none;stroke-width:3;stroke:#8000FF;"/>
</g>
<g id="2000989616"><path d="M922,340 L922,369 "
style="fill:none;stroke-width:3;stroke:#8000FF;"/>
</g>
<g id="2000989617"><path d="M901,279 L901,369 "
style="fill:none;stroke-width:3;stroke:#8000FF;"/>
</g>
<g id="2000989618"><path d="M651,1067 L651,1037 "
style="fill:none;stroke-width:3;stroke:#8000FF;"/>
</g>
<g id="2000989619"><path d="M673,1035 L657,1035 "
style="fill:none;stroke-width:3;stroke:#8000FF;"/>
</g>
<g id="2000989620"><path d="M934,639 L934,676 "
style="fill:none;stroke-width:3;stroke:#8000FF;"/>
</g>
<g id="2000989621"><path d="M922,578 L922,676 "
style="fill:none;stroke-width:3;stroke:#8000FF;"/>
</g>
<g id="2000989622"><path d="M916,490 L916,490 912,492 910,496 910,676 "
style="fill:none;stroke-width:3;stroke:#8000FF;"/>
</g>
</svg>
